<svg width="17" height="15" viewBox="0 0 17 15" fill="none" xmlns="http://www.w3.org/2000/svg">
<path fill-rule="evenodd" clip-rule="evenodd" d="M8.34222 0L14.4036 0.171378C15.4746 0.201659 16.3604 1.0147 16.4822 2.0792C16.7518 4.43555 16.7518 6.81495 16.4822 9.1713C16.3604 10.2358 15.4746 11.0488 14.4036 11.0791L9.80057 11.2093V12.9169H12.5089C12.8541 12.9169 13.1339 13.1967 13.1339 13.5419C13.1339 13.8871 12.8541 14.1669 12.5089 14.1669H4.17557C3.83039 14.1669 3.55057 13.8871 3.55057 13.5419C3.55057 13.1967 3.83039 12.9169 4.17557 12.9169H6.8839V11.2093L2.28086 11.0791C1.20985 11.0488 0.324 10.2358 0.202204 9.1713C-0.0674012 6.81495 -0.0674011 4.43555 0.202204 2.0792C0.324 1.0147 1.20985 0.201659 2.28086 0.171378L8.34222 0ZM8.34222 1.2505L2.31619 1.42088C1.86685 1.43358 1.4952 1.77469 1.4441 2.2213C1.1853 4.48322 1.1853 6.76728 1.4441 9.0292C1.4952 9.47581 1.86685 9.81692 2.31619 9.82962L8.34222 10L14.3682 9.82962C14.8176 9.81692 15.1892 9.47581 15.2403 9.0292C15.4991 6.76728 15.4991 4.48322 15.2403 2.2213C15.1892 1.77469 14.8176 1.43358 14.3682 1.42088L8.34222 1.2505Z" fill="#303030"/>
</svg>
