<svg width="18" height="18" viewBox="0 0 18 18" fill="none" xmlns="http://www.w3.org/2000/svg">
<path fill-rule="evenodd" clip-rule="evenodd" d="M8.66859 14.53C8.77523 14.594 8.88923 14.6223 9.00002 14.6209C9.11081 14.6223 9.22481 14.594 9.33145 14.53L10.2775 13.9624C12.1329 12.8491 14.4021 12.6673 16.4111 13.4709C17.1522 13.7674 17.9584 13.2216 17.9584 12.4234V2.70763C17.9584 2.22601 17.6651 1.7929 17.218 1.61403C14.6304 0.579003 11.7077 0.813188 9.31796 2.24704L9.00002 2.4378L8.68208 2.24704C6.29233 0.813188 3.36966 0.579003 0.782089 1.61403C0.334912 1.7929 0.041687 2.22601 0.041687 2.70763V12.4234C0.041687 13.2216 0.847847 13.7674 1.58895 13.4709C3.59795 12.6673 5.86712 12.8491 7.72253 13.9624L8.66859 14.53ZM1.29169 2.75665V12.2456C3.62151 11.3723 6.22652 11.607 8.36565 12.8905L8.37502 12.8961V3.52054L8.03896 3.3189C5.99814 2.09441 3.5053 1.88746 1.29169 2.75665ZM9.63439 12.8905L9.62502 12.8961V3.52054L9.96108 3.3189C12.0019 2.09441 14.4947 1.88746 16.7084 2.75665V12.2456C14.3785 11.3723 11.7735 11.607 9.63439 12.8905Z" fill="#303030"/>
<path d="M6.72932 14.8685C5.04277 13.8847 2.95727 13.8847 1.27072 14.8685L1.1851 14.9185C0.886944 15.0924 0.786233 15.4751 0.960159 15.7733C1.13408 16.0714 1.51678 16.1721 1.81494 15.9982L1.90056 15.9483C3.1979 15.1915 4.80214 15.1915 6.09948 15.9483L7.00553 16.4768C8.23801 17.1957 9.76203 17.1957 10.9945 16.4768L11.9006 15.9483C13.1979 15.1915 14.8021 15.1915 16.0995 15.9483L16.1851 15.9982C16.4833 16.1721 16.866 16.0714 17.0399 15.7733C17.2138 15.4751 17.1131 15.0924 16.8149 14.9185L16.7293 14.8685C15.0428 13.8847 12.9573 13.8847 11.2707 14.8685L10.3647 15.3971C9.5214 15.889 8.47864 15.889 7.63537 15.3971L6.72932 14.8685Z" fill="#303030"/>
</svg>
