<svg width="14" height="17" viewBox="0 0 14 17" fill="none" xmlns="http://www.w3.org/2000/svg">
<path fill-rule="evenodd" clip-rule="evenodd" d="M8.29813 2.61188C7.57266 1.91575 6.42724 1.91575 5.70176 2.61188L1.8464 6.31133C1.75194 6.40197 1.6884 6.52004 1.66479 6.64881C1.20301 9.16702 1.16892 11.745 1.56396 14.2746L1.65773 14.875H4.13811V9.6989C4.13811 9.35372 4.41793 9.0739 4.76311 9.0739H9.23679C9.58197 9.0739 9.86179 9.35372 9.86179 9.6989V14.875H12.3422L12.4359 14.2746C12.831 11.745 12.7969 9.16702 12.3351 6.6488C12.3115 6.52004 12.248 6.40197 12.1535 6.31133L8.29813 2.61188ZM4.83631 1.70995C6.04543 0.549727 7.95447 0.549727 9.16359 1.70995L13.019 5.40939C13.3028 5.68172 13.4937 6.03646 13.5646 6.42335C14.0517 9.0797 14.0877 11.7992 13.671 14.4675L13.5203 15.432C13.458 15.8309 13.1145 16.125 12.7107 16.125H9.23679C8.89161 16.125 8.61179 15.8452 8.61179 15.5V10.3239H5.38811V15.5C5.38811 15.8452 5.10829 16.125 4.76311 16.125H1.28917C0.885432 16.125 0.541861 15.8309 0.479565 15.432L0.328929 14.4675C-0.0877776 11.7992 -0.0518215 9.0797 0.435287 6.42335C0.506231 6.03646 0.697134 5.68172 0.980942 5.40939L4.83631 1.70995Z" fill="#303030"/>
</svg>
