<svg width="16" height="17" viewBox="0 0 16 17" fill="none" xmlns="http://www.w3.org/2000/svg">
<path d="M6.33331 10.0417C6.67849 10.0417 6.95831 10.3215 6.95831 10.6667V12.3333C6.95831 12.6785 6.67849 12.9583 6.33331 12.9583C5.98813 12.9583 5.70831 12.6785 5.70831 12.3333V10.6667C5.70831 10.3215 5.98813 10.0417 6.33331 10.0417Z" fill="#303030"/>
<path d="M10.2916 10.6667C10.2916 10.3215 10.0118 10.0417 9.66665 10.0417C9.32147 10.0417 9.04165 10.3215 9.04165 10.6667V12.3333C9.04165 12.6785 9.32147 12.9583 9.66665 12.9583C10.0118 12.9583 10.2916 12.6785 10.2916 12.3333V10.6667Z" fill="#303030"/>
<path fill-rule="evenodd" clip-rule="evenodd" d="M6.04124 1.8125C6.21383 1.51356 6.11141 1.13132 5.81248 0.958732C5.51354 0.786143 5.1313 0.888565 4.95871 1.1875L3.29205 4.07425C3.26708 4.1175 3.24786 4.16249 3.23417 4.20833H2.99998C1.73433 4.20833 0.708313 5.23435 0.708313 6.5C0.708313 7.21594 1.03662 7.8552 1.55089 8.27544L2.10667 12.096L2.47896 13.8403C2.70202 14.8854 3.55517 15.6792 4.61361 15.8265C6.86037 16.1391 9.13959 16.1391 11.3863 15.8265C12.4448 15.6792 13.2979 14.8854 13.521 13.8403L13.8933 12.096L14.4491 8.27544C14.9633 7.8552 15.2916 7.21594 15.2916 6.5C15.2916 5.23435 14.2656 4.20833 13 4.20833H12.7658C12.7521 4.16249 12.7329 4.1175 12.7079 4.07425L11.0412 1.1875C10.8687 0.888565 10.4864 0.786143 10.1875 0.958732C9.88855 1.13132 9.78613 1.51356 9.95871 1.8125L11.3419 4.20833H4.65801L6.04124 1.8125ZM13.1112 8.78901C13.0743 8.79077 13.0373 8.79167 13 8.79167H2.99998C2.96269 8.79167 2.92561 8.79077 2.88876 8.78901L3.33773 11.8754L3.70143 13.5794C3.81474 14.1103 4.24817 14.5136 4.78588 14.5884C6.91834 14.8851 9.08162 14.8851 11.2141 14.5884C11.7518 14.5136 12.1852 14.1103 12.2985 13.5794L12.6622 11.8754L13.1112 8.78901ZM1.95831 6.5C1.95831 5.9247 2.42468 5.45833 2.99998 5.45833H13C13.5753 5.45833 14.0416 5.9247 14.0416 6.5C14.0416 7.0753 13.5753 7.54167 13 7.54167H2.99998C2.42468 7.54167 1.95831 7.0753 1.95831 6.5Z" fill="#303030"/>
</svg>
