<svg width="16" height="19" viewBox="0 0 16 19" fill="none" xmlns="http://www.w3.org/2000/svg">
<path d="M3.35737 2.01086C3.58434 1.75079 3.55751 1.35598 3.29745 1.12901C3.03738 0.902038 2.64257 0.928866 2.4156 1.18893L1.33909 2.4224C0.728456 3.12208 0.383264 4.01417 0.3639 4.94263L0.316667 7.20735C0.30947 7.55245 0.583396 7.83805 0.928499 7.84524C1.2736 7.85244 1.5592 7.57852 1.5664 7.23341L1.61363 4.9687C1.62688 4.33343 1.86306 3.72305 2.28086 3.24433L3.35737 2.01086Z" fill="#303030"/>
<path fill-rule="evenodd" clip-rule="evenodd" d="M3.19754 6.41734C3.31329 4.56673 4.84795 3.12505 6.70218 3.12505H7.16669V2.50005C7.16669 2.03982 7.53979 1.66672 8.00003 1.66672C8.46026 1.66672 8.83336 2.03982 8.83336 2.50005V3.12505H9.29787C11.1521 3.12505 12.6868 4.56673 12.8025 6.41734L12.9867 9.36188C13.0569 10.4845 13.4338 11.5664 14.0763 12.4897C14.6569 13.3239 14.1401 14.4761 13.131 14.5972L10.2917 14.9379V15.8334C10.2917 17.099 9.26568 18.1251 8.00003 18.1251C6.73437 18.1251 5.70836 17.099 5.70836 15.8334V14.9379L2.86909 14.5972C1.85998 14.4761 1.34313 13.3239 1.9237 12.4897C2.56625 11.5664 2.94315 10.4845 3.01337 9.36188L3.19754 6.41734ZM6.70218 4.37505C5.50801 4.37505 4.51965 5.30353 4.4451 6.49537L4.26093 9.43991C4.17644 10.7909 3.72289 12.0927 2.94969 13.2037C2.90772 13.264 2.94508 13.3473 3.01802 13.3561L6.13273 13.7298C7.37314 13.8787 8.6269 13.8787 9.86731 13.7298L12.982 13.3561C13.055 13.3473 13.0923 13.264 13.0504 13.2037C12.2772 12.0927 11.8236 10.7909 11.7391 9.43991L11.5549 6.49537C11.4804 5.30353 10.492 4.37505 9.29787 4.37505H6.70218ZM8.00003 16.8751C7.42473 16.8751 6.95836 16.4087 6.95836 15.8334V15.2084H9.04169V15.8334C9.04169 16.4087 8.57532 16.8751 8.00003 16.8751Z" fill="#303030"/>
<path d="M12.7026 1.12901C12.4425 1.35598 12.4157 1.75079 12.6427 2.01086L13.7192 3.24433C14.137 3.72305 14.3732 4.33343 14.3864 4.9687L14.4337 7.23341C14.4409 7.57852 14.7265 7.85244 15.0716 7.84524C15.4167 7.83805 15.6906 7.55245 15.6834 7.20735L15.6362 4.94263C15.6168 4.01417 15.2716 3.12208 14.661 2.4224L13.5845 1.18893C13.3575 0.928866 12.9627 0.902038 12.7026 1.12901Z" fill="#303030"/>
</svg>
